<svg t="1747918916807" class="icon" viewBox="0 0 1024 1024" version="1.1" xmlns="http://www.w3.org/2000/svg" p-id="2701" data-spm-anchor-id="a313x.search_index.0.i6.63663a81mSPMgw" width="200" height="200"><path d="M736 256m-64 0a64 64 0 1 0 128 0 64 64 0 1 0-128 0Z" fill="#4A8BFE" p-id="2702"></path><path d="M800 512m-64 0a64 64 0 1 0 128 0 64 64 0 1 0-128 0Z" fill="#f4ea2a" p-id="2703" data-spm-anchor-id="a313x.search_index.0.i4.63663a81mSPMgw" class=""></path><path d="M528 592m-112 0a112 112 0 1 0 224 0 112 112 0 1 0-224 0Z" fill="#ec3f28" p-id="2704" data-spm-anchor-id="a313x.search_index.0.i0.63663a81mSPMgw" class=""></path><path d="M704 832m-64 0a64 64 0 1 0 128 0 64 64 0 1 0-128 0Z" fill="#3BD5B3" p-id="2705" data-spm-anchor-id="a313x.search_index.0.i10.63663a81mSPMgw" class=""></path><path d="M864 704m-32 0a32 32 0 1 0 64 0 32 32 0 1 0-64 0Z" fill="#4A8BFE" p-id="2706"></path><path d="M272 784m-80 0a80 80 0 1 0 160 0 80 80 0 1 0-160 0Z" fill="#4A8BFE" p-id="2707"></path><path d="M192 544m-64 0a64 64 0 1 0 128 0 64 64 0 1 0-128 0Z" fill="#d4237a" p-id="2708" data-spm-anchor-id="a313x.search_index.0.i5.63663a81mSPMgw" class=""></path><path d="M368 368m-80 0a80 80 0 1 0 160 0 80 80 0 1 0-160 0Z" fill="#f4ea2a" p-id="2709" data-spm-anchor-id="a313x.search_index.0.i3.63663a81mSPMgw" class=""></path><path d="M208 240m-48 0a48 48 0 1 0 96 0 48 48 0 1 0-96 0Z" fill="#ec3f28" p-id="2710" data-spm-anchor-id="a313x.search_index.0.i9.63663a81mSPMgw" class=""></path><path d="M528 176m-48 0a48 48 0 1 0 96 0 48 48 0 1 0-96 0Z" fill="#d4237a" p-id="2711" data-spm-anchor-id="a313x.search_index.0.i7.63663a81mSPMgw" class=""></path><path d="M496 816m-48 0a48 48 0 1 0 96 0 48 48 0 1 0-96 0Z" fill="#f4ea2a" p-id="2712" data-spm-anchor-id="a313x.search_index.0.i11.63663a81mSPMgw" class=""></path><path d="M592 368m-48 0a48 48 0 1 0 96 0 48 48 0 1 0-96 0Z" fill="#3BD5B3" p-id="2713"></path></svg>